PathFileType	4	(X/Y/Z) abd_2kg_3.trc																										
DataRate	CameraRate	NumFrames	NumMarkers	Units	OrigDataRate	OrigDataStartFrame	OrigNumFrames																					
100	100	59	9	mm	100	352	938																					
Frame#	Time	gu			centelbow			EpL			centpxt8			centijc7			ij			ts			aa			ai		
		X1	Y1	Z1	X2	Y2	Z2	X3	Y3	Z3	X4	Y4	Z4	X5	Y5	Z5	X6	Y6	Z6	X7	Y7	Z7	X8	Y8	Z8	X9	Y9	Z9  
351	3.51	-99.168	64.471	99.573	-10.797	264.722	213.916	-31.661	279.999	194.661	-46.816	-153.158	-8.669	-46.816	31.938	-8.669	0	0	0	-147.313	-16.119	50.716	-139.602	89.152	106.244	-137.26	-64.784	152.776
352	3.52	-99.283	65.063	99.178	-10.092	265.472	212.604	-31.074	280.725	193.459	-46.816	-153.158	-8.669	-46.816	31.938	-8.669	0	0	0	-147.546	-16.311	50.877	-139.556	89.059	106.178	-137.175	-64.791	152.993
353	3.53	-99.613	65.156	98.843	-9.608	265.738	211.317	-30.688	280.967	192.261	-46.816	-153.158	-8.669	-46.816	31.938	-8.669	0	0	0	-147.508	-16.452	51.09	-139.335	89.007	106.192	-136.891	-64.765	153.26
354	3.54	-99.908	64.746	98.628	-9.132	265.498	210.174	-30.264	280.707	191.16	-46.816	-153.158	-8.669	-46.816	31.938	-8.669	0	0	0	-147.259	-16.518	51.266	-138.966	89.019	106.204	-136.444	-64.687	153.483
355	3.55	-99.953	64.083	98.646	-8.515	264.964	209.417	-29.648	280.164	190.396	-46.816	-153.158	-8.669	-46.816	31.938	-8.669	0	0	0	-147.07	-16.564	51.343	-138.662	89.032	106.148	-136.079	-64.622	153.594
356	3.56	-99.729	63.477	98.875	-7.786	264.423	209.108	-28.891	279.623	190.057	-46.816	-153.158	-8.669	-46.816	31.938	-8.669	0	0	0	-147.099	-16.606	51.317	-138.556	89.043	105.999	-135.936	-64.563	153.596
357	3.57	-99.411	63.204	99.071	-7.136	264.188	208.957	-28.216	279.39	189.88	-46.816	-153.158	-8.669	-46.816	31.938	-8.669	0	0	0	-147.274	-16.631	51.235	-138.596	89.076	105.785	-135.942	-64.478	153.548
358	3.58	-99.204	63.274	99.068	-6.741	264.318	208.686	-27.819	279.513	189.6	-46.816	-153.158	-8.669	-46.816	31.938	-8.669	0	0	0	-147.407	-16.658	51.165	-138.629	89.103	105.591	-135.934	-64.401	153.51
359	3.59	-99.184	63.402	98.938	-6.61	264.53	208.308	-27.701	279.711	189.226	-46.816	-153.158	-8.669	-46.816	31.938	-8.669	0	0	0	-147.408	-16.755	51.119	-138.582	89.048	105.458	-135.84	-64.421	153.489
360	3.6	-99.338	63.341	98.794	-6.685	264.561	207.928	-27.792	279.726	188.851	-46.816	-153.158	-8.669	-46.816	31.938	-8.669	0	0	0	-147.368	-16.912	51.083	-138.562	88.92	105.367	-135.752	-64.523	153.474
361	3.61	-99.626	63.173	98.594	-6.946	264.519	207.473	-28.069	279.661	188.395	-46.816	-153.158	-8.669	-46.816	31.938	-8.669	0	0	0	-147.41	-16.987	50.997	-138.714	88.882	105.228	-135.76	-64.534	153.414
362	3.62	-99.916	63.184	98.226	-7.283	264.737	206.762	-28.435	279.838	187.683	-46.816	-153.158	-8.669	-46.816	31.938	-8.669	0	0	0	-147.532	-16.883	50.752	-139.027	89.036	104.914	-135.81	-64.343	153.201
363	3.63	-100.075	63.429	97.714	-7.522	265.258	205.805	-28.716	280.306	186.731	-46.816	-153.158	-8.669	-46.816	31.938	-8.669	0	0	0	-147.692	-16.74	50.4	-139.39	89.237	104.48	-135.84	-64.099	152.88
364	3.64	-100.142	63.619	97.245	-7.605	265.708	204.861	-28.848	280.705	185.801	-46.816	-153.158	-8.669	-46.816	31.938	-8.669	0	0	0	-147.888	-16.847	50.149	-139.716	89.187	104.139	-135.899	-64.104	152.66
365	3.65	-100.248	63.568	96.906	-7.621	265.846	204.089	-28.903	280.807	185.046	-46.816	-153.158	-8.669	-46.816	31.938	-8.669	0	0	0	-148.032	-17.245	50.046	-139.907	88.841	103.94	-135.95	-64.406	152.592
366	3.66	-100.455	63.487	96.618	-7.69	265.9	203.427	-29.004	280.837	184.399	-46.816	-153.158	-8.669	-46.816	31.938	-8.669	0	0	0	-147.969	-17.597	49.964	-139.868	88.542	103.758	-135.825	-64.659	152.548
367	3.67	-100.713	63.557	96.421	-7.829	266.074	202.93	-29.161	280.992	183.909	-46.816	-153.158	-8.669	-46.816	31.938	-8.669	0	0	0	-147.752	-17.663	49.862	-139.71	88.531	103.555	-135.55	-64.621	152.487
368	3.68	-100.897	63.673	96.425	-7.926	266.264	202.715	-29.264	281.169	183.691	-46.816	-153.158	-8.669	-46.816	31.938	-8.669	0	0	0	-147.63	-17.576	49.826	-139.69	88.679	103.413	-135.375	-64.42	152.496
369	3.69	-100.961	63.762	96.535	-7.952	266.441	202.625	-29.296	281.331	183.595	-46.816	-153.158	-8.669	-46.816	31.938	-8.669	0	0	0	-147.681	-17.539	49.92	-139.875	88.787	103.387	-135.387	-64.251	152.646
370	3.7	-100.996	63.888	96.562	-8.045	266.729	202.392	-29.408	281.587	183.358	-46.816	-153.158	-8.669	-46.816	31.938	-8.669	0	0	0	-147.733	-17.625	50.083	-140.084	88.784	103.407	-135.411	-64.181	152.876
371	3.71	-101.1	64.001	96.436	-8.286	267.06	201.968	-29.68	281.874	182.935	-46.816	-153.158	-8.669	-46.816	31.938	-8.669	0	0	0	-147.643	-17.825	50.181	-140.151	88.666	103.363	-135.298	-64.225	153.041
372	3.72	-101.274	63.988	96.226	-8.59	267.221	201.537	-30.012	281.999	182.507	-46.816	-153.158	-8.669	-46.816	31.938	-8.669	0	0	0	-147.462	-18.057	50.185	-140.107	88.495	103.264	-135.115	-64.342	153.098
373	3.73	-101.491	63.905	96.086	-8.891	267.223	201.307	-30.326	281.983	182.279	-46.816	-153.158	-8.669	-46.816	31.938	-8.669	0	0	0	-147.368	-18.178	50.151	-140.14	88.415	103.165	-135.034	-64.384	153.1
374	3.74	-101.729	63.863	96.128	-9.215	267.231	201.327	-30.653	281.981	182.293	-46.816	-153.158	-8.669	-46.816	31.938	-8.669	0	0	0	-147.454	-18.127	50.129	-140.362	88.506	103.081	-135.133	-64.257	153.114
375	3.75	-101.946	63.827	96.352	-9.556	267.264	201.529	-30.991	281.999	182.48	-46.816	-153.158	-8.669	-46.816	31.938	-8.669	0	0	0	-147.607	-18.054	50.228	-140.636	88.626	103.101	-135.31	-64.093	153.256
376	3.76	-102.127	63.753	96.628	-9.855	267.251	201.787	-31.282	281.974	182.721	-46.816	-153.158	-8.669	-46.816	31.938	-8.669	0	0	0	-147.676	-18.1	50.477	-140.782	88.62	103.279	-135.433	-64.062	153.546
377	3.77	-102.291	63.722	96.753	-10.084	267.25	201.913	-31.507	281.966	182.837	-46.816	-153.158	-8.669	-46.816	31.938	-8.669	0	0	0	-147.677	-18.171	50.656	-140.822	88.572	103.417	-135.477	-64.088	153.751
378	3.78	-102.423	63.813	96.67	-10.26	267.362	201.828	-31.686	282.074	182.751	-46.816	-153.158	-8.669	-46.816	31.938	-8.669	0	0	0	-147.703	-18.108	50.605	-140.889	88.648	103.345	-135.503	-64.001	153.71
379	3.79	-102.49	63.945	96.527	-10.41	267.539	201.671	-31.84	282.241	182.592	-46.816	-153.158	-8.669	-46.816	31.938	-8.669	0	0	0	-147.758	-17.978	50.485	-141.01	88.788	103.215	-135.539	-63.852	153.596
380	3.8	-102.505	64.025	96.481	-10.556	267.68	201.621	-31.988	282.369	182.533	-46.816	-153.158	-8.669	-46.816	31.938	-8.669	0	0	0	-147.739	-17.93	50.5	-141.078	88.845	103.22	-135.523	-63.786	153.62
381	3.81	-102.489	64.088	96.559	-10.7	267.801	201.726	-32.126	282.477	182.623	-46.816	-153.158	-8.669	-46.816	31.938	-8.669	0	0	0	-147.586	-17.903	50.614	-141.022	88.883	103.325	-135.395	-63.738	153.746
382	3.82	-102.464	64.18	96.695	-10.822	267.937	201.905	-32.241	282.603	182.785	-46.816	-153.158	-8.669	-46.816	31.938	-8.669	0	0	0	-147.398	-17.76	50.716	-140.925	89.035	103.42	-135.237	-63.578	153.859
383	3.83	-102.474	64.261	96.796	-10.924	268.042	202.04	-32.335	282.703	182.908	-46.816	-153.158	-8.669	-46.816	31.938	-8.669	0	0	0	-147.336	-17.575	50.773	-140.916	89.223	103.477	-135.202	-63.388	153.921
384	3.84	-102.527	64.287	96.804	-11.013	268.072	202.071	-32.418	282.732	182.932	-46.816	-153.158	-8.669	-46.816	31.938	-8.669	0	0	0	-147.41	-17.534	50.782	-140.996	89.264	103.487	-135.3	-63.347	153.933
385	3.85	-102.571	64.276	96.717	-11.075	268.058	202.007	-32.478	282.718	182.866	-46.816	-153.158	-8.669	-46.816	31.938	-8.669	0	0	0	-147.499	-17.634	50.738	-141.075	89.164	103.441	-135.402	-63.446	153.891
386	3.86	-102.571	64.273	96.589	-11.104	268.051	201.91	-32.509	282.712	182.77	-46.816	-153.158	-8.669	-46.816	31.938	-8.669	0	0	0	-147.538	-17.705	50.655	-141.121	89.094	103.359	-135.442	-63.516	153.808
387	3.87	-102.555	64.285	96.491	-11.117	268.057	201.85	-32.522	282.718	182.711	-46.816	-153.158	-8.669	-46.816	31.938	-8.669	0	0	0	-147.543	-17.65	50.546	-141.145	89.144	103.263	-135.444	-63.471	153.695
388	3.88	-102.56	64.296	96.468	-11.129	268.054	201.861	-32.532	282.718	182.722	-46.816	-153.158	-8.669	-46.816	31.938	-8.669	0	0	0	-147.523	-17.533	50.455	-141.14	89.25	103.194	-135.419	-63.374	153.595
389	3.89	-102.578	64.283	96.534	-11.144	268.023	201.957	-32.544	282.691	182.816	-46.816	-153.158	-8.669	-46.816	31.938	-8.669	0	0	0	-147.486	-17.477	50.445	-141.109	89.295	103.208	-135.378	-63.341	153.573
390	3.9	-102.574	64.242	96.66	-11.165	267.97	202.128	-32.56	282.64	182.985	-46.816	-153.158	-8.669	-46.816	31.938	-8.669	0	0	0	-147.468	-17.531	50.477	-141.097	89.23	103.264	-135.361	-63.417	153.596
391	3.91	-102.54	64.229	96.765	-11.194	267.945	202.312	-32.586	282.616	183.166	-46.816	-153.158	-8.669	-46.816	31.938	-8.669	0	0	0	-147.478	-17.628	50.45	-141.112	89.122	103.26	-135.374	-63.536	153.559
392	3.92	-102.497	64.274	96.8	-11.227	267.963	202.462	-32.615	282.638	183.315	-46.816	-153.158	-8.669	-46.816	31.938	-8.669	0	0	0	-147.468	-17.661	50.364	-141.111	89.072	103.208	-135.365	-63.601	153.459
393	3.93	-102.475	64.328	96.748	-11.281	267.962	202.585	-32.665	282.646	183.44	-46.816	-153.158	-8.669	-46.816	31.938	-8.669	0	0	0	-147.414	-17.588	50.288	-141.081	89.117	103.192	-135.318	-63.583	153.36
394	3.94	-102.499	64.387	96.552	-11.413	267.922	202.671	-32.791	282.623	183.531	-46.816	-153.158	-8.669	-46.816	31.938	-8.669	0	0	0	-147.353	-17.481	50.186	-141.064	89.182	103.179	-135.275	-63.557	153.223
395	3.95	-102.517	64.486	96.22	-11.612	267.877	202.771	-32.979	282.601	183.637	-46.816	-153.158	-8.669	-46.816	31.938	-8.669	0	0	0	-147.304	-17.462	49.969	-141.062	89.149	103.072	-135.246	-63.639	152.964
396	3.96	-102.411	64.597	95.93	-11.775	267.785	203.093	-33.119	282.543	183.961	-46.816	-153.158	-8.669	-46.816	31.938	-8.669	0	0	0	-147.199	-17.539	49.666	-141.002	89.01	102.899	-135.157	-63.836	152.609
397	3.97	-102.202	64.689	95.849	-11.901	267.605	203.807	-33.209	282.409	184.67	-46.816	-153.158	-8.669	-46.816	31.938	-8.669	0	0	0	-147.019	-17.568	49.371	-140.885	88.904	102.765	-134.993	-64.013	152.248
398	3.98	-102.062	64.825	95.918	-12.143	267.404	204.823	-33.403	282.266	185.677	-46.816	-153.158	-8.669	-46.816	31.938	-8.669	0	0	0	-146.877	-17.463	49.12	-140.841	88.918	102.707	-134.874	-64.084	151.921
399	3.99	-102.075	65.038	95.907	-12.574	267.25	205.836	-33.785	282.174	186.683	-46.816	-153.158	-8.669	-46.816	31.938	-8.669	0	0	0	-146.852	-17.339	48.855	-140.943	88.941	102.656	-134.881	-64.152	151.572
400	4	-102.147	65.249	95.671	-13.076	267.108	206.593	-34.245	282.088	187.439	-46.816	-153.158	-8.669	-46.816	31.938	-8.669	0	0	0	-146.833	-17.313	48.493	-141.068	88.863	102.513	-134.901	-64.324	151.124
401	4.01	-102.139	65.358	95.337	-13.471	266.906	207.144	-34.606	281.936	187.992	-46.816	-153.158	-8.669	-46.816	31.938	-8.669	0	0	0	-146.686	-17.37	48.062	-141.083	88.706	102.296	-134.81	-64.57	150.613
402	4.02	-102.007	65.35	95.134	-13.7	266.633	207.701	-34.803	281.704	188.546	-46.816	-153.158	-8.669	-46.816	31.938	-8.669	0	0	0	-146.456	-17.465	47.669	-141.047	88.515	102.112	-134.681	-64.845	150.149
403	4.03	-101.873	65.31	95.091	-13.906	266.372	208.317	-34.97	281.479	189.147	-46.816	-153.158	-8.669	-46.816	31.938	-8.669	0	0	0	-146.194	-17.524	47.35	-141.039	88.355	102.012	-134.584	-65.09	149.763
404	4.04	-101.867	65.3	95.204	-14.255	266.162	209.059	-35.269	281.301	189.859	-46.816	-153.158	-8.669	-46.816	31.938	-8.669	0	0	0	-145.831	-17.391	47.072	-141.007	88.377	101.978	-134.427	-65.16	149.413
405	4.05	-101.918	65.24	95.611	-14.712	265.874	210.177	-35.661	281.052	190.936	-46.816	-153.158	-8.669	-46.816	31.938	-8.669	0	0	0	-145.434	-17.09	46.817	-140.987	88.555	101.99	-134.242	-65.082	149.078
406	4.06	-101.889	65.091	96.222	-15.167	265.44	211.651	-36.045	280.664	192.37	-46.816	-153.158	-8.669	-46.816	31.938	-8.669	0	0	0	-145.218	-16.928	46.626	-141.121	88.587	102.076	-134.239	-65.155	148.799
407	4.07	-101.852	65.005	96.645	-15.666	265.02	213.052	-36.484	280.295	193.748	-46.816	-153.158	-8.669	-46.816	31.938	-8.669	0	0	0	-145.184	-17.021	46.527	-141.352	88.371	102.228	-134.418	-65.47	148.617
408	4.08	-101.996	65.14	96.667	-16.342	264.787	214.092	-37.121	280.117	194.788	-46.816	-153.158	-8.669	-46.816	31.938	-8.669	0	0	0	-145.112	-17.119	46.422	-141.48	88.172	102.327	-134.536	-65.75	148.446
409	4.09	-102.288	65.469	96.428	-17.157	264.74	214.868	-37.909	280.123	195.577	-46.816	-153.158	-8.669	-46.816	31.938	-8.669	0	0	0	-144.916	-17.058	46.224	-141.479	88.145	102.307	-134.49	-65.846	148.188
